<svg width="78" height="78" viewBox="0 0 78 78" fill="none" xmlns="http://www.w3.org/2000/svg">
<path id="Vector" d="M28.3284 78L26.7761 65.52C25.9353 65.195 25.1437 64.805 24.4012 64.35C23.6587 63.895 22.9305 63.4075 22.2164 62.8875L10.6716 67.7625L0 49.2375L9.99254 41.6325C9.92786 41.1775 9.89552 40.7394 9.89552 40.3182V37.6857C9.89552 37.2619 9.92786 36.8225 9.99254 36.3675L0 28.7625L10.6716 10.2375L22.2164 15.1125C22.9279 14.5925 23.6716 14.105 24.4478 13.65C25.2239 13.195 26 12.805 26.7761 12.48L28.3284 0H49.6716L51.2239 12.48C52.0647 12.805 52.8576 13.195 53.6027 13.65C54.3478 14.105 55.0747 14.5925 55.7836 15.1125L67.3284 10.2375L78 28.7625L68.0075 36.3675C68.0721 36.8225 68.1045 37.2619 68.1045 37.6857V40.3143C68.1045 40.7381 68.0398 41.1775 67.9105 41.6325L77.903 49.2375L67.2313 67.7625L55.7836 62.8875C55.0721 63.4075 54.3284 63.895 53.5522 64.35C52.7761 64.805 52 65.195 51.2239 65.52L49.6716 78H28.3284ZM35.1194 70.2H42.7836L44.1418 59.865C46.1468 59.345 48.0069 58.5819 49.7221 57.5757C51.4373 56.5695 53.0051 55.3501 54.4254 53.9175L64.0299 57.915L67.8134 51.285L59.4702 44.9475C59.7935 44.0375 60.0199 43.0794 60.1493 42.0732C60.2786 41.067 60.3433 40.0426 60.3433 39C60.3433 37.96 60.2786 36.9369 60.1493 35.9307C60.0199 34.9245 59.7935 33.9651 59.4702 33.0525L67.8134 26.715L64.0299 20.085L54.4254 24.18C53.0025 22.685 51.4347 21.4344 49.7221 20.4282C48.0095 19.422 46.1494 18.6576 44.1418 18.135L42.8806 7.8H35.2164L33.8582 18.135C31.8532 18.655 29.9944 19.4194 28.2818 20.4282C26.5692 21.437 25.0001 22.6551 23.5746 24.0825L13.9702 20.085L10.1866 26.715L18.5299 32.955C18.2065 33.93 17.9801 34.905 17.8507 35.88C17.7214 36.855 17.6567 37.895 17.6567 39C17.6567 40.04 17.7214 41.0475 17.8507 42.0225C17.9801 42.9975 18.2065 43.9725 18.5299 44.9475L10.1866 51.285L13.9702 57.915L23.5746 53.82C24.9975 55.315 26.5666 56.5669 28.2818 57.5757C29.997 58.5845 31.8558 59.3476 33.8582 59.865L35.1194 70.2ZM39.194 52.65C42.9453 52.65 46.1468 51.3175 48.7985 48.6525C51.4503 45.9875 52.7761 42.77 52.7761 39C52.7761 35.23 51.4503 32.0125 48.7985 29.3475C46.1468 26.6825 42.9453 25.35 39.194 25.35C35.3781 25.35 32.1598 26.6825 29.5391 29.3475C26.9184 32.0125 25.6094 35.23 25.6119 39C25.6119 42.77 26.9223 45.9875 29.543 48.6525C32.1637 51.3175 35.3807 52.65 39.194 52.65Z" fill="white"/>
</svg>
