<svg width="75" height="75" viewBox="0 0 75 75" fill="none" xmlns="http://www.w3.org/2000/svg">
<g id="mingcute:search-fill" clip-path="url(#clip0_59_30)">
<g id="Group">
<path id="Vector" d="M32.8125 6.25C37.7999 6.24967 42.6866 7.65346 46.9134 10.3007C51.1403 12.948 54.5364 16.7318 56.7132 21.219C58.89 25.7063 59.7595 30.7158 59.2222 35.6741C58.6849 40.6325 56.7625 45.3394 53.675 49.2562L65.0875 60.6687C65.6567 61.2581 65.9717 62.0475 65.9646 62.8669C65.9575 63.6862 65.6288 64.47 65.0494 65.0494C64.47 65.6288 63.6862 65.9575 62.8669 65.9646C62.0475 65.9717 61.2581 65.6567 60.6687 65.0875L49.2562 53.675C45.9295 56.2968 42.0241 58.0849 37.8657 58.8904C33.7073 59.6958 29.4166 59.4951 25.3516 58.305C21.2866 57.1149 17.5651 54.97 14.4976 52.0491C11.4301 49.1283 9.10565 45.5162 7.71806 41.5143C6.33047 37.5124 5.92002 33.2367 6.52096 29.0439C7.1219 24.8511 8.71681 20.8628 11.1726 17.4117C13.6284 13.9607 16.8739 11.1469 20.6383 9.20529C24.4027 7.26364 28.5769 6.25036 32.8125 6.25ZM32.8125 12.5C27.4253 12.5 22.2587 14.6401 18.4494 18.4494C14.6401 22.2587 12.5 27.4253 12.5 32.8125C12.5 38.1997 14.6401 43.3663 18.4494 47.1756C22.2587 50.9849 27.4253 53.125 32.8125 53.125C38.1997 53.125 43.3663 50.9849 47.1756 47.1756C50.9849 43.3663 53.125 38.1997 53.125 32.8125C53.125 27.4253 50.9849 22.2587 47.1756 18.4494C43.3663 14.6401 38.1997 12.5 32.8125 12.5ZM32.8125 15.625C37.3709 15.625 41.7426 17.4358 44.9659 20.6591C48.1892 23.8824 50 28.2541 50 32.8125C50 37.3709 48.1892 41.7426 44.9659 44.9659C41.7426 48.1892 37.3709 50 32.8125 50C28.2541 50 23.8824 48.1892 20.6591 44.9659C17.4358 41.7426 15.625 37.3709 15.625 32.8125C15.625 28.2541 17.4358 23.8824 20.6591 20.6591C23.8824 17.4358 28.2541 15.625 32.8125 15.625Z" fill="white"/>
</g>
</g>
<defs>
<clipPath id="clip0_59_30">
<rect width="75" height="75" fill="white"/>
</clipPath>
</defs>
</svg>
